<?xml version="1.0" encoding="UTF-8" standalone="no"?>
<!DOCTYPE svg PUBLIC "-//W3C//DTD SVG 1.1//EN" "http://www.w3.org/Graphics/SVG/1.1/DTD/svg11.dtd">
<svg width="100%" height="100%" viewBox="0 0 78 64" version="1.1" xmlns="http://www.w3.org/2000/svg" xmlns:xlink="http://www.w3.org/1999/xlink" xml:space="preserve" style="fill-rule:evenodd;clip-rule:evenodd;stroke-linejoin:round;stroke-miterlimit:1.41421;">
    <g transform="matrix(1,0,0,1,0,-0.05)">
        <g transform="matrix(1,0,0,1,-11,-18)">
            <path d="M85,37C85.1,36.6 84.9,36.1 84.5,35.9L50.5,18.2C50.2,18 49.9,18 49.6,18.2L15.6,35.9C15.2,36.1 15,36.6 15.1,37C15.2,37.4 15.6,37.8 16.1,37.8L49.1,37.8L49.1,81C49.1,81.6 49.5,82 50.1,82C50.7,82 51.1,81.6 51.1,81L51.1,37.8L84.1,37.8C84.5,37.8 84.9,37.5 85,37ZM20,35.8L50,20.2L80,35.8L20,35.8Z" style="fill-rule:nonzero;"/>
            <path d="M88,63.3L81.9,63.3L81.9,54.7C81.9,54.1 81.5,53.7 80.9,53.7L63.4,53.7C62.8,53.7 62.4,54.1 62.4,54.7L62.4,63.3L57,63.3C56.4,63.3 56,63.7 56,64.3L56,80.9C56,81.5 56.4,81.9 57,81.9L63.4,81.9C64,81.9 64.4,81.5 64.4,80.9L64.4,73.1L79.8,73.1L79.8,80.9C79.8,81.5 80.2,81.9 80.8,81.9L88,81.9C88.6,81.9 89,81.5 89,80.9L89,64.3C89,63.7 88.6,63.3 88,63.3ZM64.4,55.7L79.8,55.7L79.8,63.3L64.4,63.3L64.4,55.7ZM87,79.9L81.9,79.9L81.9,72.1C81.9,71.5 81.5,71.1 80.9,71.1L63.4,71.1C62.8,71.1 62.4,71.5 62.4,72.1L62.4,79.9L58,79.9L58,65.3L87,65.3L87,79.9Z" style="fill-rule:nonzero;"/>
            <path d="M43,63.3L36.9,63.3L36.9,54.7C36.9,54.1 36.5,53.7 35.9,53.7L18.4,53.7C17.8,53.7 17.4,54.1 17.4,54.7L17.4,63.3L12,63.3C11.4,63.3 11,63.7 11,64.3L11,80.9C11,81.5 11.4,81.9 12,81.9L18.4,81.9C19,81.9 19.4,81.5 19.4,80.9L19.4,73.1L34.8,73.1L34.8,80.9C34.8,81.5 35.2,81.9 35.8,81.9L43,81.9C43.6,81.9 44,81.5 44,80.9L44,64.3C44,63.7 43.6,63.3 43,63.3ZM19.4,55.7L34.8,55.7L34.8,63.3L19.4,63.3L19.4,55.7ZM42,79.9L36.9,79.9L36.9,72.1C36.9,71.5 36.5,71.1 35.9,71.1L18.4,71.1C17.8,71.1 17.4,71.5 17.4,72.1L17.4,79.9L13,79.9L13,65.3L42,65.3L42,79.9Z" style="fill-rule:nonzero;"/>
        </g>
    </g>
</svg>
