<?xml version="1.0" encoding="UTF-8" standalone="no"?>
<!DOCTYPE svg PUBLIC "-//W3C//DTD SVG 1.1//EN" "http://www.w3.org/Graphics/SVG/1.1/DTD/svg11.dtd">
<svg width="100%" height="100%" viewBox="0 0 1536 1114" version="1.1" xmlns="http://www.w3.org/2000/svg" xmlns:xlink="http://www.w3.org/1999/xlink" xml:space="preserve" style="fill-rule:evenodd;clip-rule:evenodd;stroke-linejoin:round;stroke-miterlimit:1.41421;">
    <g id="Artboard1" transform="matrix(0.935445,0,0,0.967014,-194.572,-445.793)">
        <rect x="208" y="461" width="1642" height="1152" style="fill:none;"/>
        <clipPath id="_clip1">
            <rect x="208" y="461" width="1642" height="1152"/>
        </clipPath>
        <g clip-path="url(#_clip1)">
            <g transform="matrix(1.06901,0,0,1.03411,-65.6667,-21.93)">
                <path d="M280.001,851.193L1792,851.193L1792,1005.48L1768,1005.48L280.001,1005.48L256.001,1005.48L256.001,981.478L256.001,875.193L256.001,851.193L280.001,851.193ZM1744,899.193L304.001,899.193L304.001,957.478L1744,957.478L1744,899.193Z" style="fill-rule:nonzero;"/>
                <path d="M280.004,1224.62L1791.99,1224.62L1791.99,1378.9L1767.99,1378.9L280.004,1378.9L256.004,1378.9L256.004,1354.9L256.004,1248.62L256.004,1224.62L280.004,1224.62ZM1743.99,1272.62L304.004,1272.62L304.004,1330.9L1743.99,1330.9L1743.99,1272.62Z" style="fill-rule:nonzero;"/>
                <path d="M512.319,650.788L512.319,875.194C512.319,888.448 501.573,899.194 488.319,899.194L431.783,899.194L279.999,899.194C266.745,899.194 255.999,888.448 255.999,875.194L255.999,650.788C255.999,646.862 256.942,643.156 258.613,639.885C304.433,524.74 341.159,467.157 384.16,467.157C427.421,467.157 464.33,525.432 510.538,641.976C511.686,644.87 512.227,647.855 512.227,650.788L512.319,650.788L512.319,650.788ZM464.319,851.194L464.319,655.118C427.139,561.811 402.57,515.157 384.16,515.157C365.75,515.157 341.18,561.811 304,655.118L304,851.194L464.319,851.194L464.319,851.194ZM512.319,981.479L512.319,1248.62C512.319,1261.87 501.573,1272.62 488.319,1272.62L424.111,1272.62L280,1272.62C266.745,1272.62 256,1261.87 256,1248.62L256,981.479C256,968.225 266.745,957.479 280,957.479L488.32,957.479C501.574,957.479 512.32,968.225 512.32,981.479L512.319,981.479ZM464.319,1224.62L464.319,1005.48L431.783,1005.48L303.999,1005.48L303.999,1224.62L464.319,1224.62ZM512.319,1354.9L512.319,1556.84C512.319,1570.1 501.573,1580.84 488.319,1580.84L384.161,1580.84L280,1580.84C266.746,1580.84 256,1570.1 256,1556.84L256,1354.9C256,1341.65 266.746,1330.9 280,1330.9L488.319,1330.9C501.574,1330.9 512.319,1341.65 512.319,1354.9L512.319,1354.9ZM464.319,1532.84L464.319,1378.9L424.111,1378.9L304,1378.9L304,1532.84L464.319,1532.84L464.319,1532.84Z" style="fill-rule:nonzero;"/>
                <path d="M950.214,650.788L950.214,875.194C950.214,888.448 939.468,899.194 926.214,899.194L717.895,899.194C704.641,899.194 693.895,888.448 693.895,875.194L693.895,650.788C693.895,646.862 694.838,643.156 696.509,639.885C742.328,524.74 779.053,467.157 822.054,467.157C865.315,467.157 902.223,525.431 948.433,641.976C949.581,644.87 950.122,647.855 950.122,650.788L950.214,650.788L950.214,650.788ZM902.214,851.194L902.214,655.118C865.033,561.81 840.464,515.157 822.054,515.157C803.644,515.157 779.075,561.811 741.895,655.118L741.895,851.194L902.214,851.194ZM950.214,981.479L950.214,1248.62C950.214,1261.87 939.468,1272.62 926.214,1272.62L717.895,1272.62C704.641,1272.62 693.895,1261.87 693.895,1248.62L693.895,981.479C693.895,968.225 704.641,957.479 717.895,957.479L926.214,957.479C939.468,957.479 950.214,968.225 950.214,981.479L950.214,981.479ZM902.214,1224.62L902.214,1005.48L741.895,1005.48L741.895,1224.62L902.214,1224.62ZM950.214,1354.9L950.214,1556.84C950.214,1570.1 939.468,1580.84 926.214,1580.84L822.053,1580.84L717.895,1580.84C704.641,1580.84 693.895,1570.1 693.895,1556.84L693.895,1354.9C693.895,1341.65 704.641,1330.9 717.895,1330.9L926.214,1330.9C939.468,1330.9 950.214,1341.65 950.214,1354.9ZM902.214,1532.84L902.214,1378.9L741.895,1378.9L741.895,1532.84L902.214,1532.84L902.214,1532.84Z" style="fill-rule:nonzero;"/>
                <path d="M1388.11,650.788L1388.11,875.194C1388.11,888.448 1377.36,899.194 1364.11,899.194L1155.79,899.194C1142.54,899.194 1131.79,888.448 1131.79,875.194L1131.79,650.788C1131.79,646.862 1132.73,643.156 1134.4,639.885C1180.22,524.74 1216.95,467.157 1259.95,467.157C1303.21,467.157 1340.12,525.432 1386.33,641.976C1387.48,644.87 1388.02,647.855 1388.02,650.788L1388.11,650.788L1388.11,650.788ZM1340.11,851.194L1340.11,655.118C1302.93,561.811 1278.36,515.157 1259.95,515.157C1241.54,515.157 1216.97,561.811 1179.79,655.118L1179.79,851.194L1340.11,851.194ZM1388.11,981.479L1388.11,1248.62C1388.11,1261.87 1377.36,1272.62 1364.11,1272.62L1155.79,1272.62C1142.54,1272.62 1131.79,1261.87 1131.79,1248.62L1131.79,981.479C1131.79,968.225 1142.54,957.479 1155.79,957.479L1364.11,957.479C1377.36,957.479 1388.11,968.225 1388.11,981.479L1388.11,981.479ZM1340.11,1224.62L1340.11,1005.48L1179.79,1005.48L1179.79,1224.62L1340.11,1224.62ZM1388.11,1354.9L1388.11,1556.84C1388.11,1570.1 1377.36,1580.84 1364.11,1580.84L1259.95,1580.84L1155.79,1580.84C1142.54,1580.84 1131.79,1570.1 1131.79,1556.84L1131.79,1354.9C1131.79,1341.65 1142.54,1330.9 1155.79,1330.9L1364.11,1330.9C1377.36,1330.9 1388.11,1341.65 1388.11,1354.9L1388.11,1354.9ZM1340.11,1532.84L1340.11,1378.9L1179.79,1378.9L1179.79,1532.84L1340.11,1532.84L1340.11,1532.84Z" style="fill-rule:nonzero;"/>
                <path d="M1792,650.788L1792,875.194C1792,888.448 1781.25,899.194 1768,899.194L1768,899.194L1559.68,899.194C1546.43,899.194 1535.68,888.448 1535.68,875.194L1535.68,650.788C1535.68,646.862 1536.62,643.156 1538.29,639.885C1584.12,524.739 1620.84,467.157 1663.84,467.157C1707.1,467.157 1744.01,525.431 1790.22,641.976C1791.37,644.87 1791.91,647.855 1791.91,650.788L1792,650.788L1792,650.788ZM1744,851.194L1744,655.118C1706.82,561.811 1682.25,515.157 1663.84,515.157C1645.43,515.157 1620.86,561.809 1583.68,655.118L1583.68,851.194L1744,851.194ZM1792,981.479L1792,1248.62C1792,1261.87 1781.25,1272.62 1768,1272.62L1768,1272.62L1559.68,1272.62C1546.43,1272.62 1535.68,1261.87 1535.68,1248.62L1535.68,981.479C1535.68,968.225 1546.43,957.479 1559.68,957.479L1768,957.479C1781.25,957.479 1792,968.225 1792,981.479L1792,981.479ZM1744,1224.62L1744,1005.48L1583.68,1005.48L1583.68,1224.62L1744,1224.62ZM1792,1354.9L1792,1556.84C1792,1570.1 1781.25,1580.84 1768,1580.84L1663.84,1580.84L1559.68,1580.84C1546.43,1580.84 1535.68,1570.1 1535.68,1556.84L1535.68,1354.9C1535.68,1341.65 1546.43,1330.9 1559.68,1330.9L1768,1330.9C1781.26,1330.9 1792,1341.65 1792,1354.9L1792,1354.9ZM1744,1532.84L1744,1378.9L1583.68,1378.9L1583.68,1532.84L1744,1532.84L1744,1532.84Z" style="fill-rule:nonzero;"/>
            </g>
            <g transform="matrix(1.06901,0,0,1.03411,-65.6667,-21.93)">
                <rect x="0" y="0" width="2048" height="2048" style="fill:none;"/>
            </g>
        </g>
    </g>
</svg>
