<?xml version="1.0" encoding="UTF-8" standalone="no"?>
<!DOCTYPE svg PUBLIC "-//W3C//DTD SVG 1.1//EN" "http://www.w3.org/Graphics/SVG/1.1/DTD/svg11.dtd">
<svg width="100%" height="100%" viewBox="0 0 85 80" version="1.1" xmlns="http://www.w3.org/2000/svg" xmlns:xlink="http://www.w3.org/1999/xlink" xml:space="preserve" style="fill-rule:evenodd;clip-rule:evenodd;stroke-linejoin:round;stroke-miterlimit:1.41421;">
    <g id="Artboard1" transform="matrix(0.85,0,0,0.909091,0,-5.45455)">
        <rect x="0" y="6" width="100" height="88" style="fill:none;"/>
        <g transform="matrix(1.17647,0,0,1.1,-9.41176,-5)">
            <circle cx="16.6" cy="52.2" r="1.3"/>
        </g>
        <g transform="matrix(1.17647,0,0,1.1,-9.41176,-5)">
            <circle cx="16.6" cy="84.2" r="1.3"/>
        </g>
        <g transform="matrix(1.17647,0,0,1.1,-9.41176,-5)">
            <circle cx="84" cy="52.2" r="1.3"/>
        </g>
        <g transform="matrix(1.17647,0,0,1.1,-9.41176,-5)">
            <circle cx="84" cy="84.2" r="1.3"/>
        </g>
        <g transform="matrix(1.17647,0,0,1.1,-9.41176,-5)">
            <path d="M88,23.1C89,22.6 89.9,21.9 90.5,21.2C91.4,20.1 91.7,19.1 91.3,18.1C90.6,16.5 88.2,16.1 85.5,17.1C86.7,13.9 86.2,10.9 84.4,10.2C82.5,9.5 80.2,11.3 78.8,14.5C78.3,13.5 77.6,12.6 76.9,12C75.8,11.1 74.7,10.8 73.8,11.2C72.9,11.6 72.3,12.6 72.2,14C72.1,14.9 72.3,16 72.7,17.1C71.3,16.6 70,16.4 68.8,16.5C67.3,16.6 66.3,17.2 65.9,18.3C65.5,19.3 65.8,20.5 66.8,21.6C67.6,22.5 68.8,23.2 70.1,23.8C67.6,25.1 66.2,27.2 66.9,28.8C67.3,29.7 68.3,30.3 69.7,30.4C69.8,30.4 69.9,30.4 70,30.4C70.8,30.4 71.8,30.2 72.7,29.9C71.5,33.1 72,36 73.8,36.8C74.1,36.9 74.4,37 74.7,37C75.5,37 76.3,36.6 77.1,35.9C77.5,35.5 77.9,35.1 78.2,34.6L78.2,46.7L51.4,46.7L51.4,33.9C52.4,35.1 53.5,35.9 54.6,35.9C54.9,35.9 55.2,35.8 55.5,35.7C57.1,35 57.5,32.5 56.5,29.8C57.7,30.2 58.9,30.5 59.9,30.5C60.1,30.5 60.3,30.5 60.5,30.5C62,30.4 63,29.7 63.5,28.7C64.2,26.8 62.4,24.5 59.2,23.1C60.2,22.6 61.1,21.9 61.7,21.2C62.6,20.1 62.9,19.1 62.5,18.1C62.1,17.2 61.1,16.6 59.7,16.6C58.8,16.6 57.7,16.7 56.7,17.1C57.9,13.9 57.4,10.9 55.6,10.2C54.6,9.8 53.4,10.1 52.3,11.1C51.4,11.9 50.6,13.1 50,14.4C49.5,13.4 48.8,12.5 48.1,11.9C47,11 45.9,10.8 45,11.2C44.1,11.6 43.5,12.6 43.4,14C43.3,14.9 43.5,16 43.9,17.1C42.5,16.6 41.2,16.4 40,16.5C38.5,16.6 37.5,17.2 37,18.3C36.6,19.3 36.9,20.5 37.9,21.6C38.7,22.5 39.9,23.2 41.2,23.8C38.7,25.1 37.3,27.2 38,28.8C38.4,29.8 39.6,30.4 41.1,30.4C41.9,30.4 42.8,30.2 43.7,29.9C42.5,33.1 43,36 44.8,36.8C45.1,36.9 45.4,37 45.7,37C46.9,37 48.2,36.1 49.3,34.6L49.3,46.7L22.6,46.7L22.6,33.9C23.6,35.1 24.7,35.9 25.8,35.9C26.1,35.9 26.4,35.8 26.7,35.7C28.3,35 28.7,32.5 27.7,29.8C28.9,30.2 30.1,30.5 31.1,30.5C31.3,30.5 31.5,30.5 31.7,30.5C33.2,30.4 34.2,29.7 34.7,28.7C35.1,27.7 34.8,26.5 33.8,25.4C33,24.5 31.8,23.7 30.5,23.2C31.5,22.7 32.4,22 33,21.3C33.9,20.2 34.2,19.2 33.8,18.2C33.1,16.6 30.7,16.2 28,17.2C28.5,15.8 28.8,14.4 28.7,13.2C28.6,11.7 27.9,10.7 26.9,10.2C25.9,9.8 24.7,10.1 23.6,11.1C22.7,11.9 21.9,13.1 21.3,14.4C20.8,13.4 20.1,12.5 19.4,11.9C18.3,11 17.2,10.7 16.3,11.1C15.4,11.5 14.8,12.5 14.7,13.9C14.6,14.8 14.8,15.9 15.2,17C13.8,16.5 12.5,16.3 11.3,16.4C9.8,16.5 8.8,17.1 8.4,18.2C8,19.2 8.3,20.4 9.3,21.5C10.1,22.4 11.3,23.1 12.6,23.7C10.1,25 8.7,27.1 9.4,28.7C9.8,29.6 10.8,30.2 12.2,30.3C12.3,30.3 12.4,30.3 12.5,30.3C13.3,30.3 14.3,30.1 15.2,29.8C14,33 14.5,35.9 16.3,36.7C16.6,36.8 16.9,36.9 17.2,36.9C18,36.9 18.8,36.5 19.6,35.8C20,35.4 20.4,35 20.7,34.5L20.7,46.6L10.7,46.6C10.1,46.6 9.7,47 9.7,47.6L9.7,57C9.7,57.6 10.1,58 10.7,58L13,58L13,78.5L10.7,78.5C10.1,78.5 9.7,78.9 9.7,79.5L9.7,89C9.7,89.6 10.1,90 10.7,90L90.4,90C91,90 91.4,89.6 91.4,89L91.4,79.5C91.4,78.9 91,78.5 90.4,78.5L88.2,78.5L88.2,58L90.4,58C91,58 91.4,57.6 91.4,57L91.4,47.5C91.4,46.9 91,46.5 90.4,46.5L80.2,46.5L80.2,33.9C81.2,35.1 82.3,35.9 83.4,35.9C83.7,35.9 84,35.8 84.3,35.7C85.2,35.3 85.8,34.3 85.9,32.9C86,31.9 85.8,30.9 85.4,29.8C86.6,30.2 87.8,30.5 88.8,30.5C89,30.5 89.2,30.5 89.4,30.5C90.9,30.4 91.9,29.7 92.4,28.7C92.8,27.7 92.5,26.5 91.5,25.4C90.5,24.4 89.3,23.7 88,23.1ZM48.2,22.6C48.5,21.7 49.4,21.2 50.3,21.2C50.6,21.2 50.8,21.3 51.1,21.4C52.2,21.9 52.8,23.1 52.3,24.3C51.8,25.5 50.6,26 49.4,25.5C48.3,25 47.8,23.7 48.2,22.6ZM54.7,33.8C54.3,34 53,33.2 52,31C51.4,29.6 51.3,28.4 51.5,27.6C51.8,27.5 52.1,27.4 52.4,27.2C53,27.6 53.9,28.5 54.5,29.9C55.4,32.1 55,33.7 54.7,33.8ZM61.6,27.9C61.5,28.1 61.1,28.4 60.3,28.4C59.4,28.5 58.2,28.3 57,27.8C55.5,27.2 54.5,26.4 54,25.7C54.1,25.5 54.3,25.3 54.4,25C54.5,24.8 54.5,24.5 54.6,24.3C55.4,24.1 56.8,24.2 58.3,24.8C60.7,25.8 61.8,27.4 61.6,27.9ZM59.6,18.6C60.3,18.6 60.6,18.8 60.6,18.9C60.6,19 60.6,19.4 60.1,19.9C59.6,20.5 58.7,21.1 57.7,21.6C56.3,22.2 55.1,22.3 54.4,22.2C54.3,21.9 54.2,21.6 54,21.3C54.4,20.7 55.3,19.9 56.7,19.3C57.7,18.8 58.8,18.5 59.6,18.6ZM51.7,15.4C52.2,14.3 52.8,13.2 53.5,12.6C54.1,12.1 54.5,12 54.7,12C55.2,12.2 55.6,14.1 54.6,16.5C54,18 53.1,19.1 52.4,19.6C52.2,19.5 52,19.4 51.7,19.3C51.5,19.2 51.3,19.2 51,19.1C51.1,18.3 51.1,16.9 51.7,15.4ZM45.8,13L45.9,13C46.1,13 46.4,13.1 46.8,13.5C47.4,14 48,14.9 48.5,15.9C49.1,17.3 49.2,18.5 49,19.2C48.7,19.3 48.4,19.4 48.1,19.6C47.5,19.2 46.6,18.3 46,16.9C45.6,15.9 45.4,14.9 45.4,14C45.4,13.4 45.6,13.1 45.8,13ZM38.9,18.8C39,18.6 39.4,18.4 40.1,18.3C41,18.2 42.2,18.4 43.4,18.9C44.9,19.5 46,20.4 46.5,21.1C46.4,21.3 46.3,21.5 46.2,21.7C46.1,22 46,22.2 46,22.4C45.2,22.6 43.8,22.5 42.3,21.9C41.2,21.4 40.1,20.8 39.5,20.1C39,19.5 38.8,19 38.9,18.8ZM39.9,27.8C39.7,27.4 40.6,26.1 42.7,25.1C43.7,24.7 44.6,24.5 45.3,24.5C45.6,24.5 45.8,24.5 46,24.6C46.1,24.9 46.2,25.2 46.4,25.5C46,26.1 45.1,26.9 43.7,27.5C41.6,28.5 40,28.2 39.9,27.8ZM48.8,31.3C47.8,33.7 46.3,34.9 45.7,34.7C45.2,34.5 44.8,32.6 45.8,30.2C46.4,28.7 47.3,27.7 47.9,27.2C48.1,27.3 48.4,27.5 48.6,27.6C48.8,27.7 49,27.7 49.2,27.8C49.5,28.5 49.4,29.8 48.8,31.3ZM19.5,22.6C19.8,21.7 20.7,21.2 21.6,21.2C21.9,21.2 22.1,21.3 22.4,21.4C23.5,21.9 24.1,23.1 23.6,24.3C23.1,25.4 21.9,26 20.7,25.5C19.6,25 19,23.7 19.5,22.6ZM25.9,33.8C25.5,33.9 24.2,33.1 23.2,31C22.6,29.6 22.5,28.4 22.7,27.6C23,27.5 23.3,27.4 23.6,27.2C24.2,27.6 25.1,28.5 25.7,29.9C26.6,32.1 26.3,33.7 25.9,33.8ZM32.8,27.9C32.7,28.1 32.3,28.4 31.5,28.4C30.6,28.5 29.4,28.3 28.2,27.8C26.7,27.2 25.7,26.4 25.2,25.7C25.3,25.5 25.5,25.3 25.6,25C25.7,24.8 25.7,24.5 25.8,24.3C26.6,24.1 28,24.2 29.5,24.8C30.6,25.3 31.7,25.9 32.3,26.6C32.8,27.3 32.9,27.7 32.8,27.9ZM31.9,18.9C32,19 31.9,19.4 31.4,19.9C30.9,20.5 30,21.1 29,21.6C27.6,22.2 26.4,22.3 25.7,22.2C25.6,21.9 25.5,21.6 25.3,21.3C25.7,20.7 26.6,19.9 28,19.3C30.2,18.3 31.7,18.6 31.9,18.9ZM23,15.4C23.5,14.3 24.1,13.2 24.8,12.6C25.4,12.1 25.8,12 26,12C26.2,12.1 26.5,12.5 26.5,13.3C26.6,14.2 26.4,15.4 25.9,16.6C25.3,18.1 24.4,19.2 23.7,19.7C23.5,19.6 23.3,19.5 23,19.4C22.8,19.3 22.6,19.3 22.3,19.2C22.3,18.3 22.4,16.9 23,15.4ZM17,13L17.1,13C17.3,13 17.6,13.1 18,13.5C18.6,14 19.2,14.9 19.7,15.9C20.3,17.3 20.4,18.5 20.2,19.2C19.9,19.3 19.6,19.4 19.3,19.6C18.7,19.2 17.8,18.3 17.2,16.9C16.8,15.9 16.6,14.9 16.6,14C16.7,13.4 16.9,13.1 17,13ZM10.2,18.8C10.3,18.6 10.7,18.4 11.4,18.3C12.3,18.2 13.5,18.4 14.7,18.9C16.2,19.5 17.3,20.4 17.8,21.1C17.7,21.3 17.6,21.5 17.5,21.7C17.4,21.9 17.4,22.1 17.3,22.3C16.5,22.5 15.1,22.4 13.6,21.8C12.5,21.3 11.4,20.7 10.8,20C10.2,19.5 10.1,19 10.2,18.8ZM12.2,28.2C11.6,28.2 11.2,28 11.2,27.8C11,27.4 11.9,26.1 14,25.1C15,24.7 15.9,24.5 16.6,24.5C16.9,24.5 17.1,24.5 17.3,24.6C17.4,24.9 17.5,25.2 17.7,25.5C17.3,26.1 16.4,26.9 15,27.5C14,28 13,28.2 12.2,28.2ZM20,31.3C19.5,32.4 18.9,33.5 18.2,34.1C17.6,34.6 17.2,34.7 17,34.7C16.5,34.5 16.1,32.6 17.1,30.2C17.7,28.7 18.6,27.7 19.2,27.2C19.4,27.3 19.7,27.5 19.9,27.6C20.1,27.7 20.3,27.7 20.5,27.8C20.7,28.5 20.6,29.8 20,31.3ZM25.3,78.5L20.8,74.6L26.8,69.4L33.2,75L29.2,78.5L29.2,78.6L25.3,78.6L25.3,78.5ZM15,69.7C15,69.6 14.9,69.6 15,69.7L14.9,67.6C14.9,67.6 15,67.6 15,67.5L19.7,63.3L25.2,68.1L19.1,73.4L15,69.7ZM17.8,74.7L15,77.2L15,72.3L17.8,74.7ZM14.9,65L14.9,59L18.3,61.9L14.9,65ZM19.3,76L22.3,78.5L16.4,78.5L19.3,76ZM28.4,68.1L34.8,62.5L41.2,68.1L34.8,73.7L28.4,68.1ZM34.8,76.3L37.4,78.5L32.3,78.5L34.8,76.3ZM40.4,78.5L36.3,75L42.7,69.4L49.1,75L45.1,78.5L45.1,78.6L40.4,78.6L40.4,78.5ZM44.3,68.1L50.7,62.5L57.1,68.1L50.7,73.7L44.3,68.1ZM50.7,76.3L53.3,78.5L48.2,78.5L50.7,76.3ZM56.3,78.5C56.2,78.5 56.2,78.5 56.3,78.5L52.2,75L58.6,69.4L65,75L61,78.5L61,78.6L56.3,78.6L56.3,78.5ZM60.1,68.1L66.5,62.5L72.9,68.1L66.5,73.7L60.1,68.1ZM66.6,76.3L69.2,78.5L64,78.5L66.6,76.3ZM72.1,78.5L68.1,75L74.5,69.4L80.4,74.6L76,78.4L76,78.5L72.1,78.5ZM86.1,66.2L86.1,69.7L82,73.2L76,68.1L82.1,62.8L86.1,66.2ZM83.7,61.4L86.2,59.3L86.2,63.5L83.7,61.4ZM82,75.9L85,78.5L79,78.5L82,75.9ZM83.5,74.6L86.1,72.3L86.1,76.9L83.5,74.6ZM82.1,60.1L79.6,58L84.6,58L82.1,60.1ZM76.5,58L80.6,61.5L74.5,66.8L68.1,61.2L71.8,58L71.8,57.9L76.5,57.9L76.5,58ZM66.6,59.9L64.3,58L68.7,58L66.6,59.9ZM61.3,58L65,61.2L58.6,66.8L52.2,61.2L55.9,58L55.9,57.9L61.3,57.9L61.3,58ZM50.7,59.9L48.5,58L52.9,58L50.7,59.9ZM45.4,58C45.5,58 45.5,58 45.4,58L49.1,61.2L42.7,66.8L36.3,61.2L40,58L40,57.9L45.4,57.9L45.4,58ZM34.8,59.9L32.6,58L37,58L34.8,59.9ZM29.6,58L33.3,61.2L26.9,66.8L21.3,62L25.7,58L29.6,58ZM19.8,60.6L16.7,58L22.7,58L19.8,60.6ZM89.4,88L11.6,88L11.6,80.5L89.3,80.5L89.3,88L89.4,88ZM89.4,56L11.6,56L11.6,48.5L89.3,48.5L89.3,56L89.4,56ZM78.2,25.4C77.1,24.9 76.5,23.7 77,22.5C77.3,21.6 78.2,21.1 79.1,21.1C79.4,21.1 79.6,21.2 79.9,21.3C81,21.8 81.6,23 81.1,24.2C80.6,25.3 79.3,25.9 78.2,25.4ZM89.4,18.9C89.5,19 89.4,19.4 88.9,19.9C88.4,20.5 87.5,21.1 86.5,21.6C85.1,22.2 83.9,22.3 83.2,22.2C83.1,21.9 83,21.6 82.8,21.3C83.2,20.7 84.1,19.9 85.5,19.3C87.7,18.3 89.2,18.6 89.4,18.9ZM80.5,15.4C81.5,13 83,11.8 83.6,12C84.1,12.2 84.5,14.1 83.5,16.5C82.9,18 82,19.1 81.3,19.6C81.1,19.5 80.9,19.4 80.6,19.3C80.4,19.2 80.2,19.2 79.9,19.1C79.8,18.3 79.9,16.9 80.5,15.4ZM74.5,13L74.6,13C74.8,13 75.1,13.1 75.5,13.5C76.1,14 76.7,14.9 77.2,15.9C77.8,17.3 77.9,18.5 77.7,19.2C77.4,19.3 77.1,19.4 76.8,19.6C76.2,19.2 75.3,18.3 74.7,16.9C74.3,15.9 74.1,14.9 74.1,14C74.2,13.4 74.4,13.1 74.5,13ZM67.7,18.8C67.8,18.6 68.2,18.4 68.9,18.3C69.8,18.2 71,18.4 72.2,18.9C73.7,19.5 74.8,20.4 75.3,21.1C75.2,21.3 75.1,21.5 75,21.7C74.9,21.9 74.9,22.1 74.8,22.3C74,22.5 72.6,22.4 71.1,21.8C70,21.3 68.9,20.7 68.3,20C67.7,19.5 67.6,19 67.7,18.8ZM69.7,28.2C69.1,28.2 68.7,28 68.7,27.8C68.5,27.4 69.4,26.1 71.5,25.1C72.5,24.7 73.4,24.5 74.1,24.5C74.4,24.5 74.6,24.5 74.8,24.6C74.9,24.9 75,25.2 75.2,25.5C74.8,26.1 73.9,26.9 72.5,27.5C71.6,28 70.5,28.2 69.7,28.2ZM77.5,31.3C77,32.4 76.4,33.5 75.7,34.1C75.1,34.6 74.6,34.7 74.5,34.7C74,34.5 73.6,32.6 74.6,30.2C75.2,28.7 76.1,27.7 76.7,27.2C76.9,27.3 77.2,27.5 77.4,27.6C77.6,27.7 77.8,27.7 78,27.8C78.2,28.5 78.1,29.8 77.5,31.3ZM83.4,33.8C83,33.9 81.7,33.1 80.7,31C80.1,29.6 80,28.4 80.2,27.6C80.5,27.5 80.8,27.4 81.1,27.2C81.7,27.6 82.6,28.5 83.2,29.9C83.6,30.9 83.8,31.9 83.8,32.8C83.8,33.4 83.6,33.8 83.4,33.8ZM90.3,27.9C90.2,28.1 89.8,28.4 89,28.4C88.1,28.5 86.9,28.3 85.7,27.8C84.2,27.2 83.2,26.4 82.7,25.7C82.8,25.5 83,25.3 83.1,25C83.2,24.8 83.2,24.5 83.3,24.3C84.1,24.1 85.5,24.2 87,24.8C88.1,25.3 89.2,25.9 89.8,26.6C90.3,27.3 90.4,27.7 90.3,27.9Z" style="fill-rule:nonzero;"/>
        </g>
    </g>
</svg>
